<mxfile modified="2024-05-23T18:08:56.371Z" host="app.diagrams.net" agent="Mozilla/5.0 (Windows NT 10.0; Win64; x64) AppleWebKit/537.36 (KHTML, like Gecko) Chrome/124.0.0.0 Safari/537.36" etag="DY09QPQSfyhnF2qddQDr" version="24.4.4" type="device">
  <diagram id="l2aKFoh6-Bn0gOPZ2l0T" name="Page-1">
    <mxGraphModel dx="1467" dy="1594" grid="1" gridSize="10" guides="1" tooltips="1" connect="1" arrows="1" fold="1" page="1" pageScale="1" pageWidth="1169" pageHeight="827" math="0" shadow="0">
      <root>
        <mxCell id="0" />
        <mxCell id="1" parent="0" />
        <mxCell id="mpq5AgpwV83IM184FDqD-16" value="" style="shape=image;verticalLabelPosition=bottom;verticalAlign=top;imageAspect=0;image=https://jgraph.github.io/drawio-libs/libs/arista/DCS-7308.svg;html=1;verticalLabelPosition=bottom;labelBackgroundColor=#ffffff;verticalAlign=top;outlineConnect=0;container=1;collapsible=0;childLayout=rack;rackUnitSize=16.7;allowGaps=1;marginLeft=8;marginRight=8;marginTop=27;marginBottom=22;textColor=#666666;aspect=fixed;" parent="1" vertex="1">
          <mxGeometry x="300" y="20" width="257.15" height="310" as="geometry" />
        </mxCell>
        <mxCell id="Y1MNr01p-9Sn4dXzBGwj-19" value="" style="fontColor=#0066CC;verticalAlign=top;verticalLabelPosition=bottom;labelPosition=center;align=center;html=1;outlineConnect=0;fillColor=#CCCCCC;strokeColor=#6881B3;gradientColor=none;gradientDirection=north;strokeWidth=2;shape=mxgraph.networks.modem;" parent="mpq5AgpwV83IM184FDqD-16" vertex="1">
          <mxGeometry x="8" y="27" width="241.14999999999998" height="33.4" as="geometry" />
        </mxCell>
        <mxCell id="Y1MNr01p-9Sn4dXzBGwj-20" value="" style="strokeColor=#dddddd;shadow=1;strokeWidth=1;rounded=1;absoluteArcSize=1;arcSize=2;" parent="mpq5AgpwV83IM184FDqD-16" vertex="1">
          <mxGeometry x="8" y="60.4" width="241.14999999999998" height="66.8" as="geometry" />
        </mxCell>
        <mxCell id="Y1MNr01p-9Sn4dXzBGwj-21" value="Cloud&#xa;Firewall Rules" style="editableCssRules=.*;html=1;fontColor=#999999;shape=image;verticalLabelPosition=middle;verticalAlign=middle;labelPosition=right;align=left;spacingLeft=20;part=1;points=[];imageAspect=0;image=data:image/svg+xml,PHN2ZyB4bWxucz0iaHR0cDovL3d3dy53My5vcmcvMjAwMC9zdmciIHhtbG5zOnY9Imh0dHBzOi8vdmVjdGEuaW8vbmFubyIgd2lkdGg9IjIwIiBoZWlnaHQ9IjIwIiBmaWxsPSIjNDI4NWY0IiB2aWV3Qm94PSIwIDAgMjAgMjAiPiYjeGE7CTxzdHlsZSB0eXBlPSJ0ZXh0L2NzcyI+JiN4YTsJLnN0MHtmaWxsOiM0Mjg1ZjQ7fSYjeGE7CTwvc3R5bGU+JiN4YTsJPHBhdGggY2xhc3M9InN0MCIgZD0iTTAgMGg4Ljg5djIuMjJIMHptMCAxNy43OGg4Ljg5VjIwSDB6bTAtOC44OWg4Ljg5djIuMjJIMHpNMTEuMTEgMEgyMHYyLjIyaC04Ljg5em0wIDE3Ljc4SDIwVjIwaC04Ljg5em0wLTguODlIMjB2Mi4yMmgtOC44OXpNNS41NSA0LjQ0aDguODl2Mi4yMkg1LjU1em0wIDguODloOC44OXYyLjIySDUuNTV6TTAgNC40NGgzLjMzdjIuMjJIMHptMCA4Ljg5aDMuMzN2Mi4yMkgwem0xNi42Ny04Ljg5SDIwdjIuMjJoLTMuMzN6bTAgOC44OUgyMHYyLjIyaC0zLjMzeiIvPiYjeGE7PC9zdmc+;" parent="Y1MNr01p-9Sn4dXzBGwj-20" vertex="1">
          <mxGeometry width="30" height="30" relative="1" as="geometry">
            <mxPoint x="15" y="15" as="offset" />
          </mxGeometry>
        </mxCell>
        <mxCell id="Y1MNr01p-9Sn4dXzBGwj-25" value="" style="strokeColor=#dddddd;shadow=1;strokeWidth=1;rounded=1;absoluteArcSize=1;arcSize=2;" parent="mpq5AgpwV83IM184FDqD-16" vertex="1">
          <mxGeometry x="8" y="127.19999999999999" width="241.14999999999998" height="66.8" as="geometry" />
        </mxCell>
        <mxCell id="Y1MNr01p-9Sn4dXzBGwj-26" value="Cloud&#xa;Router" style="editableCssRules=.*;html=1;fontColor=#999999;shape=image;verticalLabelPosition=middle;verticalAlign=middle;labelPosition=right;align=left;spacingLeft=20;part=1;points=[];imageAspect=0;image=data:image/svg+xml,PHN2ZyB4bWxucz0iaHR0cDovL3d3dy53My5vcmcvMjAwMC9zdmciIHhtbG5zOnY9Imh0dHBzOi8vdmVjdGEuaW8vbmFubyIgd2lkdGg9IjIwIiBoZWlnaHQ9IjIwIiB2aWV3Qm94PSIwIDAgMjAgMjAiPiYjeGE7CTxzdHlsZSB0eXBlPSJ0ZXh0L2NzcyI+JiN4YTsJLnN0MHtmaWxsOiM0Mjg1ZjQ7fSYjeGE7CTwvc3R5bGU+JiN4YTsJPHBhdGggY2xhc3M9InN0MCIgZD0iTTE3IDEydjNsLTUtNSA1LTV2M2gzdjR6TTMgOEgwdjRoM3YzbDUtNS01LTV6bTkgN3YtM0g4djNINWw1IDUgNS01em0wLTEwdjNIOFY1SDVsNS01IDUgNXoiLz4mI3hhOzwvc3ZnPg==;" parent="Y1MNr01p-9Sn4dXzBGwj-25" vertex="1">
          <mxGeometry width="30" height="30" relative="1" as="geometry">
            <mxPoint x="15" y="15" as="offset" />
          </mxGeometry>
        </mxCell>
        <mxCell id="Y1MNr01p-9Sn4dXzBGwj-28" value="" style="verticalLabelPosition=bottom;verticalAlign=top;html=1;shadow=0;dashed=0;strokeWidth=1;shape=mxgraph.android.switch_on;fillColor=#666666;sketch=0;" parent="mpq5AgpwV83IM184FDqD-16" vertex="1">
          <mxGeometry x="8" y="194" width="241.14999999999998" height="16.7" as="geometry" />
        </mxCell>
        <mxCell id="Urk9cNLpdMZqhBlkx33Z-20" style="edgeStyle=orthogonalEdgeStyle;rounded=0;orthogonalLoop=1;jettySize=auto;html=1;entryX=0.427;entryY=0.335;entryDx=0;entryDy=0;entryPerimeter=0;" edge="1" parent="mpq5AgpwV83IM184FDqD-16">
          <mxGeometry relative="1" as="geometry">
            <mxPoint x="714" y="127.20000000000005" as="sourcePoint" />
            <mxPoint x="90.9710500000001" y="236.99450000000002" as="targetPoint" />
            <Array as="points">
              <mxPoint x="714" y="149" />
              <mxPoint x="90" y="149" />
            </Array>
          </mxGeometry>
        </mxCell>
        <mxCell id="Y1MNr01p-9Sn4dXzBGwj-29" value="" style="strokeColor=#666666;html=1;labelPosition=right;align=left;spacingLeft=15;shadow=0;dashed=0;outlineConnect=0;shape=mxgraph.rack.general.cat5e_rack_mount_patch_panel_24_ports;" parent="mpq5AgpwV83IM184FDqD-16" vertex="1">
          <mxGeometry x="8" y="227.39999999999998" width="241.14999999999998" height="16.7" as="geometry" />
        </mxCell>
        <mxCell id="mpq5AgpwV83IM184FDqD-40" value="Protótipo Clínica&lt;div&gt;&lt;br&gt;&lt;/div&gt;" style="text;html=1;resizable=1;points=[];autosize=0;align=left;verticalAlign=top;spacingTop=-4;fontSize=20;fontStyle=1" parent="1" vertex="1">
          <mxGeometry x="20" y="10" width="580" height="30" as="geometry" />
        </mxCell>
        <mxCell id="Y1MNr01p-9Sn4dXzBGwj-2" value="" style="verticalLabelPosition=bottom;sketch=0;aspect=fixed;html=1;verticalAlign=top;strokeColor=none;align=center;outlineConnect=0;shape=mxgraph.citrix.printer;" parent="1" vertex="1">
          <mxGeometry x="28" y="525" width="70" height="70" as="geometry" />
        </mxCell>
        <mxCell id="Y1MNr01p-9Sn4dXzBGwj-5" value="" style="image;aspect=fixed;html=1;points=[];align=center;fontSize=12;image=img/lib/azure2/management_governance/Managed_Desktop.svg;" parent="1" vertex="1">
          <mxGeometry x="32" y="446.6" width="68" height="63.2" as="geometry" />
        </mxCell>
        <mxCell id="Urk9cNLpdMZqhBlkx33Z-15" style="edgeStyle=orthogonalEdgeStyle;rounded=0;orthogonalLoop=1;jettySize=auto;html=1;strokeWidth=1;" edge="1" parent="1" source="Y1MNr01p-9Sn4dXzBGwj-10" target="Y1MNr01p-9Sn4dXzBGwj-29">
          <mxGeometry relative="1" as="geometry">
            <Array as="points">
              <mxPoint x="330" y="392" />
            </Array>
          </mxGeometry>
        </mxCell>
        <mxCell id="Y1MNr01p-9Sn4dXzBGwj-10" value="" style="image;aspect=fixed;html=1;points=[];align=center;fontSize=12;image=img/lib/azure2/management_governance/Managed_Desktop.svg;" parent="1" vertex="1">
          <mxGeometry x="30" y="360" width="68" height="63.2" as="geometry" />
        </mxCell>
        <mxCell id="qWkzsGO7XtT7J-bZ_AaY-1" value="&lt;font style=&quot;font-size: 200px;&quot;&gt;}&lt;/font&gt;" style="text;html=1;align=center;verticalAlign=middle;resizable=0;points=[];autosize=1;strokeColor=none;fillColor=none;" parent="1" vertex="1">
          <mxGeometry x="110" y="340" width="90" height="250" as="geometry" />
        </mxCell>
        <mxCell id="qWkzsGO7XtT7J-bZ_AaY-2" value="&lt;font style=&quot;font-size: 16px;&quot;&gt;Recepção&lt;/font&gt;&lt;div&gt;&lt;br&gt;&lt;/div&gt;" style="text;html=1;align=center;verticalAlign=middle;resizable=0;points=[];autosize=1;strokeColor=none;fillColor=none;" parent="1" vertex="1">
          <mxGeometry x="170" y="468" width="100" height="50" as="geometry" />
        </mxCell>
        <mxCell id="qWkzsGO7XtT7J-bZ_AaY-3" value="P1&lt;div&gt;&lt;br&gt;&lt;/div&gt;" style="text;html=1;align=center;verticalAlign=middle;resizable=0;points=[];autosize=1;strokeColor=none;fillColor=none;" parent="1" vertex="1">
          <mxGeometry x="90" y="374" width="40" height="40" as="geometry" />
        </mxCell>
        <mxCell id="qWkzsGO7XtT7J-bZ_AaY-4" value="P2&lt;div&gt;&lt;br&gt;&lt;/div&gt;" style="text;html=1;align=center;verticalAlign=middle;resizable=0;points=[];autosize=1;strokeColor=none;fillColor=none;" parent="1" vertex="1">
          <mxGeometry x="100" y="458.20000000000005" width="40" height="40" as="geometry" />
        </mxCell>
        <mxCell id="qWkzsGO7XtT7J-bZ_AaY-5" value="P3&lt;div&gt;&lt;br&gt;&lt;/div&gt;" style="text;html=1;align=center;verticalAlign=middle;resizable=0;points=[];autosize=1;strokeColor=none;fillColor=none;" parent="1" vertex="1">
          <mxGeometry x="90" y="555" width="40" height="40" as="geometry" />
        </mxCell>
        <mxCell id="Urk9cNLpdMZqhBlkx33Z-16" style="edgeStyle=orthogonalEdgeStyle;rounded=0;orthogonalLoop=1;jettySize=auto;html=1;" edge="1" parent="1" source="qWkzsGO7XtT7J-bZ_AaY-7" target="Y1MNr01p-9Sn4dXzBGwj-29">
          <mxGeometry relative="1" as="geometry">
            <Array as="points">
              <mxPoint x="364" y="317" />
              <mxPoint x="340" y="317" />
            </Array>
          </mxGeometry>
        </mxCell>
        <mxCell id="qWkzsGO7XtT7J-bZ_AaY-7" value="" style="image;aspect=fixed;html=1;points=[];align=center;fontSize=12;image=img/lib/azure2/management_governance/Managed_Desktop.svg;" parent="1" vertex="1">
          <mxGeometry x="330" y="370" width="68" height="63.2" as="geometry" />
        </mxCell>
        <mxCell id="qWkzsGO7XtT7J-bZ_AaY-8" value="" style="image;aspect=fixed;html=1;points=[];align=center;fontSize=12;image=img/lib/azure2/management_governance/Managed_Desktop.svg;" parent="1" vertex="1">
          <mxGeometry x="330" y="446.6" width="68" height="63.2" as="geometry" />
        </mxCell>
        <mxCell id="qWkzsGO7XtT7J-bZ_AaY-9" value="" style="verticalLabelPosition=bottom;sketch=0;aspect=fixed;html=1;verticalAlign=top;strokeColor=none;align=center;outlineConnect=0;shape=mxgraph.citrix.printer;" parent="1" vertex="1">
          <mxGeometry x="328" y="520" width="70" height="70" as="geometry" />
        </mxCell>
        <mxCell id="qWkzsGO7XtT7J-bZ_AaY-10" value="P4&lt;div&gt;&lt;br&gt;&lt;/div&gt;" style="text;html=1;align=center;verticalAlign=middle;resizable=0;points=[];autosize=1;strokeColor=none;fillColor=none;" parent="1" vertex="1">
          <mxGeometry x="390" y="383.2" width="40" height="40" as="geometry" />
        </mxCell>
        <mxCell id="qWkzsGO7XtT7J-bZ_AaY-11" value="P5&lt;div&gt;&lt;br&gt;&lt;/div&gt;" style="text;html=1;align=center;verticalAlign=middle;resizable=0;points=[];autosize=1;strokeColor=none;fillColor=none;" parent="1" vertex="1">
          <mxGeometry x="390" y="458.2" width="40" height="40" as="geometry" />
        </mxCell>
        <mxCell id="qWkzsGO7XtT7J-bZ_AaY-12" value="P6&lt;div&gt;&lt;br&gt;&lt;/div&gt;" style="text;html=1;align=center;verticalAlign=middle;resizable=0;points=[];autosize=1;strokeColor=none;fillColor=none;" parent="1" vertex="1">
          <mxGeometry x="390" y="540" width="40" height="40" as="geometry" />
        </mxCell>
        <mxCell id="qWkzsGO7XtT7J-bZ_AaY-13" value="&lt;font style=&quot;font-size: 200px;&quot;&gt;}&lt;/font&gt;" style="text;html=1;align=center;verticalAlign=middle;resizable=0;points=[];autosize=1;strokeColor=none;fillColor=none;" parent="1" vertex="1">
          <mxGeometry x="420" y="330" width="90" height="250" as="geometry" />
        </mxCell>
        <mxCell id="qWkzsGO7XtT7J-bZ_AaY-14" value="&lt;font style=&quot;font-size: 16px;&quot;&gt;Administração&lt;/font&gt;" style="text;html=1;align=center;verticalAlign=middle;resizable=0;points=[];autosize=1;strokeColor=none;fillColor=none;strokeWidth=3;" parent="1" vertex="1">
          <mxGeometry x="490" y="458.2" width="120" height="30" as="geometry" />
        </mxCell>
        <mxCell id="Urk9cNLpdMZqhBlkx33Z-19" style="edgeStyle=orthogonalEdgeStyle;rounded=0;orthogonalLoop=1;jettySize=auto;html=1;" edge="1" parent="1" source="qWkzsGO7XtT7J-bZ_AaY-15" target="Y1MNr01p-9Sn4dXzBGwj-29">
          <mxGeometry relative="1" as="geometry">
            <Array as="points">
              <mxPoint x="380" y="150" />
            </Array>
          </mxGeometry>
        </mxCell>
        <mxCell id="qWkzsGO7XtT7J-bZ_AaY-15" value="" style="image;html=1;image=img/lib/clip_art/networking/Wireless_Router_128x128.png" parent="1" vertex="1">
          <mxGeometry x="640" y="80" width="80" height="80" as="geometry" />
        </mxCell>
        <mxCell id="qWkzsGO7XtT7J-bZ_AaY-17" value="&lt;font style=&quot;font-size: 15px;&quot;&gt;Sala de espera&lt;/font&gt;" style="text;html=1;align=center;verticalAlign=middle;resizable=0;points=[];autosize=1;strokeColor=none;fillColor=none;" parent="1" vertex="1">
          <mxGeometry x="760" y="63.4" width="120" height="30" as="geometry" />
        </mxCell>
        <mxCell id="qWkzsGO7XtT7J-bZ_AaY-19" value="" style="image;aspect=fixed;html=1;points=[];align=center;fontSize=12;image=img/lib/azure2/management_governance/Managed_Desktop.svg;" parent="1" vertex="1">
          <mxGeometry x="1000" y="79.99999999999994" width="68" height="63.2" as="geometry" />
        </mxCell>
        <mxCell id="qWkzsGO7XtT7J-bZ_AaY-22" value="&lt;font style=&quot;font-size: 80px;&quot;&gt;}&lt;/font&gt;" style="text;html=1;align=center;verticalAlign=middle;resizable=0;points=[];autosize=1;strokeColor=none;fillColor=none;" parent="1" vertex="1">
          <mxGeometry x="1068" y="50" width="50" height="110" as="geometry" />
        </mxCell>
        <mxCell id="qWkzsGO7XtT7J-bZ_AaY-23" value="&lt;font style=&quot;font-size: 15px;&quot;&gt;Raio X / Avaliação&lt;/font&gt;&lt;div style=&quot;font-size: 15px;&quot;&gt;&lt;br&gt;&lt;/div&gt;" style="text;html=1;align=center;verticalAlign=middle;resizable=0;points=[];autosize=1;strokeColor=none;fillColor=none;" parent="1" vertex="1">
          <mxGeometry x="1110" y="100" width="140" height="50" as="geometry" />
        </mxCell>
        <mxCell id="qWkzsGO7XtT7J-bZ_AaY-24" value="P7&lt;div&gt;&lt;br&gt;&lt;/div&gt;" style="text;html=1;align=center;verticalAlign=middle;resizable=0;points=[];autosize=1;strokeColor=none;fillColor=none;" parent="1" vertex="1">
          <mxGeometry x="640" y="70" width="40" height="40" as="geometry" />
        </mxCell>
        <mxCell id="qWkzsGO7XtT7J-bZ_AaY-25" value="P8&lt;div&gt;&lt;br&gt;&lt;/div&gt;" style="text;html=1;align=center;verticalAlign=middle;resizable=0;points=[];autosize=1;strokeColor=none;fillColor=none;" parent="1" vertex="1">
          <mxGeometry x="610" y="12.250000000000057" width="40" height="40" as="geometry" />
        </mxCell>
        <mxCell id="qWkzsGO7XtT7J-bZ_AaY-27" value="" style="image;aspect=fixed;html=1;points=[];align=center;fontSize=12;image=img/lib/azure2/management_governance/Managed_Desktop.svg;" parent="1" vertex="1">
          <mxGeometry x="1050" y="560" width="68" height="63.2" as="geometry" />
        </mxCell>
        <mxCell id="qWkzsGO7XtT7J-bZ_AaY-28" value="" style="image;aspect=fixed;html=1;points=[];align=center;fontSize=12;image=img/lib/azure2/management_governance/Managed_Desktop.svg;" parent="1" vertex="1">
          <mxGeometry x="1050" y="468.2" width="68" height="63.2" as="geometry" />
        </mxCell>
        <mxCell id="qWkzsGO7XtT7J-bZ_AaY-29" value="" style="image;aspect=fixed;html=1;points=[];align=center;fontSize=12;image=img/lib/azure2/management_governance/Managed_Desktop.svg;" parent="1" vertex="1">
          <mxGeometry x="1050" y="376.59999999999997" width="68" height="63.2" as="geometry" />
        </mxCell>
        <mxCell id="qWkzsGO7XtT7J-bZ_AaY-30" value="" style="image;aspect=fixed;html=1;points=[];align=center;fontSize=12;image=img/lib/azure2/management_governance/Managed_Desktop.svg;" parent="1" vertex="1">
          <mxGeometry x="746" y="540" width="68" height="63.2" as="geometry" />
        </mxCell>
        <mxCell id="qWkzsGO7XtT7J-bZ_AaY-31" value="" style="image;aspect=fixed;html=1;points=[];align=center;fontSize=12;image=img/lib/azure2/management_governance/Managed_Desktop.svg;" parent="1" vertex="1">
          <mxGeometry x="746" y="461.79999999999995" width="68" height="63.2" as="geometry" />
        </mxCell>
        <mxCell id="Urk9cNLpdMZqhBlkx33Z-17" style="edgeStyle=orthogonalEdgeStyle;rounded=0;orthogonalLoop=1;jettySize=auto;html=1;" edge="1" parent="1" source="qWkzsGO7XtT7J-bZ_AaY-32" target="Y1MNr01p-9Sn4dXzBGwj-29">
          <mxGeometry relative="1" as="geometry">
            <Array as="points">
              <mxPoint x="350" y="414" />
            </Array>
          </mxGeometry>
        </mxCell>
        <mxCell id="qWkzsGO7XtT7J-bZ_AaY-32" value="" style="image;aspect=fixed;html=1;points=[];align=center;fontSize=12;image=img/lib/azure2/management_governance/Managed_Desktop.svg;" parent="1" vertex="1">
          <mxGeometry x="746" y="381.99999999999994" width="68" height="63.2" as="geometry" />
        </mxCell>
        <mxCell id="qWkzsGO7XtT7J-bZ_AaY-33" value="P9" style="text;html=1;align=center;verticalAlign=middle;resizable=0;points=[];autosize=1;strokeColor=none;fillColor=none;" parent="1" vertex="1">
          <mxGeometry x="814" y="393.2" width="40" height="30" as="geometry" />
        </mxCell>
        <mxCell id="qWkzsGO7XtT7J-bZ_AaY-34" value="P10" style="text;html=1;align=center;verticalAlign=middle;resizable=0;points=[];autosize=1;strokeColor=none;fillColor=none;" parent="1" vertex="1">
          <mxGeometry x="814" y="468.2" width="40" height="30" as="geometry" />
        </mxCell>
        <mxCell id="qWkzsGO7XtT7J-bZ_AaY-35" value="P11&lt;div&gt;&lt;br&gt;&lt;/div&gt;" style="text;html=1;align=center;verticalAlign=middle;resizable=0;points=[];autosize=1;strokeColor=none;fillColor=none;" parent="1" vertex="1">
          <mxGeometry x="814" y="551.6" width="40" height="40" as="geometry" />
        </mxCell>
        <mxCell id="qWkzsGO7XtT7J-bZ_AaY-37" value="P12&lt;div&gt;&lt;br&gt;&lt;/div&gt;" style="text;html=1;align=center;verticalAlign=middle;resizable=0;points=[];autosize=1;strokeColor=none;fillColor=none;" parent="1" vertex="1">
          <mxGeometry x="1110" y="388.20000000000005" width="40" height="40" as="geometry" />
        </mxCell>
        <mxCell id="qWkzsGO7XtT7J-bZ_AaY-38" value="P13" style="text;html=1;align=center;verticalAlign=middle;resizable=0;points=[];autosize=1;strokeColor=none;fillColor=none;" parent="1" vertex="1">
          <mxGeometry x="1118" y="488" width="40" height="30" as="geometry" />
        </mxCell>
        <mxCell id="qWkzsGO7XtT7J-bZ_AaY-39" value="P14" style="text;html=1;align=center;verticalAlign=middle;resizable=0;points=[];autosize=1;strokeColor=none;fillColor=none;" parent="1" vertex="1">
          <mxGeometry x="1118" y="573.2" width="40" height="30" as="geometry" />
        </mxCell>
        <mxCell id="qWkzsGO7XtT7J-bZ_AaY-41" value="&lt;font style=&quot;font-size: 200px;&quot;&gt;}&lt;/font&gt;" style="text;html=1;align=center;verticalAlign=middle;resizable=0;points=[];autosize=1;strokeColor=none;fillColor=none;" parent="1" vertex="1">
          <mxGeometry x="840" y="353.2" width="90" height="250" as="geometry" />
        </mxCell>
        <mxCell id="qWkzsGO7XtT7J-bZ_AaY-43" value="&lt;font style=&quot;font-size: 200px;&quot;&gt;}&lt;/font&gt;" style="text;html=1;align=center;verticalAlign=middle;resizable=0;points=[];autosize=1;strokeColor=none;fillColor=none;" parent="1" vertex="1">
          <mxGeometry x="1140" y="353.2" width="90" height="250" as="geometry" />
        </mxCell>
        <mxCell id="qWkzsGO7XtT7J-bZ_AaY-44" value="&lt;span style=&quot;font-size: 16px;&quot;&gt;Cabine&lt;/span&gt;&lt;br&gt;&lt;div&gt;&lt;br&gt;&lt;/div&gt;" style="text;html=1;align=center;verticalAlign=middle;resizable=0;points=[];autosize=1;strokeColor=none;fillColor=none;" parent="1" vertex="1">
          <mxGeometry x="1210" y="478" width="70" height="50" as="geometry" />
        </mxCell>
        <mxCell id="qWkzsGO7XtT7J-bZ_AaY-45" value="&lt;span style=&quot;font-size: 16px;&quot;&gt;Cabine&lt;/span&gt;&lt;div&gt;&lt;span style=&quot;font-size: 16px;&quot;&gt;&lt;br&gt;&lt;/span&gt;&lt;/div&gt;" style="text;html=1;align=center;verticalAlign=middle;resizable=0;points=[];autosize=1;strokeColor=none;fillColor=none;" parent="1" vertex="1">
          <mxGeometry x="915" y="481.4" width="70" height="50" as="geometry" />
        </mxCell>
        <mxCell id="Urk9cNLpdMZqhBlkx33Z-34" style="edgeStyle=orthogonalEdgeStyle;rounded=0;orthogonalLoop=1;jettySize=auto;html=1;" edge="1" parent="1" source="Urk9cNLpdMZqhBlkx33Z-25" target="Y1MNr01p-9Sn4dXzBGwj-29">
          <mxGeometry relative="1" as="geometry">
            <Array as="points">
              <mxPoint x="734" y="414" />
              <mxPoint x="360" y="414" />
            </Array>
          </mxGeometry>
        </mxCell>
        <mxCell id="Urk9cNLpdMZqhBlkx33Z-25" value="" style="outlineConnect=0;dashed=0;verticalLabelPosition=bottom;verticalAlign=top;align=center;html=1;shape=mxgraph.aws3.fire_tv;fillColor=#5294CF;gradientColor=none;" vertex="1" parent="1">
          <mxGeometry x="696" y="247.40000000000003" width="75" height="55.5" as="geometry" />
        </mxCell>
        <mxCell id="Urk9cNLpdMZqhBlkx33Z-26" value="&lt;font style=&quot;font-size: 80px;&quot;&gt;}&lt;/font&gt;" style="text;html=1;align=center;verticalAlign=middle;resizable=0;points=[];autosize=1;strokeColor=none;fillColor=none;" vertex="1" parent="1">
          <mxGeometry x="765" y="210" width="50" height="110" as="geometry" />
        </mxCell>
        <mxCell id="Urk9cNLpdMZqhBlkx33Z-28" value="&lt;span style=&quot;font-size: 15px;&quot;&gt;Sala de reunião&lt;/span&gt;&lt;div&gt;&lt;span style=&quot;font-size: 15px;&quot;&gt;&lt;br&gt;&lt;/span&gt;&lt;/div&gt;" style="text;html=1;align=center;verticalAlign=middle;resizable=0;points=[];autosize=1;strokeColor=none;fillColor=none;" vertex="1" parent="1">
          <mxGeometry x="800" y="252.89999999999998" width="130" height="50" as="geometry" />
        </mxCell>
        <mxCell id="Urk9cNLpdMZqhBlkx33Z-35" value="P15&lt;div&gt;&lt;br&gt;&lt;/div&gt;" style="text;html=1;align=center;verticalAlign=middle;resizable=0;points=[];autosize=1;strokeColor=none;fillColor=none;" vertex="1" parent="1">
          <mxGeometry x="706" y="220" width="40" height="40" as="geometry" />
        </mxCell>
        <mxCell id="Urk9cNLpdMZqhBlkx33Z-36" value="" style="outlineConnect=0;dashed=0;verticalLabelPosition=bottom;verticalAlign=top;align=center;html=1;shape=mxgraph.aws3.fire_tv;fillColor=#5294CF;gradientColor=none;" vertex="1" parent="1">
          <mxGeometry x="640" y="4.500000000000028" width="75" height="55.5" as="geometry" />
        </mxCell>
        <mxCell id="Urk9cNLpdMZqhBlkx33Z-39" value="P16" style="text;html=1;align=center;verticalAlign=middle;resizable=0;points=[];autosize=1;strokeColor=none;fillColor=none;" vertex="1" parent="1">
          <mxGeometry x="960" y="80" width="40" height="30" as="geometry" />
        </mxCell>
        <mxCell id="Urk9cNLpdMZqhBlkx33Z-40" value="&lt;font style=&quot;font-size: 150px;&quot;&gt;}&lt;/font&gt;" style="text;html=1;align=center;verticalAlign=middle;resizable=0;points=[];autosize=1;strokeColor=none;fillColor=none;opacity=10;" vertex="1" parent="1">
          <mxGeometry x="706" y="-30" width="70" height="190" as="geometry" />
        </mxCell>
      </root>
    </mxGraphModel>
  </diagram>
</mxfile>
